<svg version="1.1" xmlns="http://www.w3.org/2000/svg" xmlns:xlink="http://www.w3.org/1999/xlink" width="59.54503" height="86.74521" viewBox="0,0,59.54503,86.74521"><g transform="translate(-184.2254,-180.22501)"><g data-paper-data="{&quot;isPaintingLayer&quot;:true}" stroke-miterlimit="10" stroke-dasharray="" stroke-dashoffset="0" style="mix-blend-mode: normal"><g data-paper-data="{&quot;index&quot;:null}"><path d="M221.74763,185.92178l1.96808,-0.50189c1.52767,-0.38958 3.17723,0.96335 3.70018,3.01401c0.52295,2.05066 -0.29102,4.03183 -1.80493,4.4179l-1.96808,0.50189z" fill="#ffdb48" fill-rule="nonzero" stroke="#5e154d" stroke-width="1.44" stroke-linecap="round" stroke-linejoin="round"/><path d="M225.43406,188.9393c0.52336,2.05227 -0.27857,4.02865 -1.79117,4.41439c-1.51259,0.38573 -3.16306,-0.96525 -3.68642,-3.01752c-0.52336,-2.05227 0.27857,-4.02865 1.79117,-4.41439c1.51259,-0.38573 3.16306,0.96525 3.68642,3.01752z" fill="#ffdb48" fill-rule="nonzero" stroke="#5e154d" stroke-width="1.44" stroke-linecap="round" stroke-linejoin="round"/><path d="M223.39503,184.62219l-10.01931,2.55508l-0.46328,-1.81669l9.11097,-2.32344c0.51116,0.47912 0.9709,1.01034 1.37163,1.58505z" fill="#f05822" fill-rule="nonzero" stroke="#dd3627" stroke-width="0.72" stroke-linecap="round" stroke-linejoin="round"/><path d="M216.15542,198.07741l-0.46328,-1.81669l10.01931,-2.55508c-0.07656,0.69643 -0.22578,1.38294 -0.44507,2.04833z" fill="#f05822" fill-rule="nonzero" stroke="#dd3627" stroke-width="0.72" stroke-linecap="round" stroke-linejoin="round"/><path d="M222.0234,183.03714l-9.11097,2.32344l-0.46328,-1.81669l7.59706,-1.93737c0.72196,0.38324 1.38737,0.86471 1.97719,1.43062z" fill="#f05822" fill-rule="nonzero" stroke="#dd3627" stroke-width="0.72" stroke-linecap="round" stroke-linejoin="round"/><path d="M220.04621,181.60653l-7.59706,1.93737l-0.42468,-1.66529l3.66091,-0.93359c1.48526,-0.33039 3.04037,-0.09449 4.36083,0.66151z" fill="#f05822" fill-rule="nonzero" stroke="#dd3627" stroke-width="0.72" stroke-linecap="round" stroke-linejoin="round"/><path d="M225.11984,188.052l-10.81755,2.75864l-0.46328,-1.81669l10.55606,-2.69196c0.28306,0.56528 0.52528,1.15012 0.72477,1.75z" fill="#f05822" fill-rule="nonzero" stroke="#dd3627" stroke-width="0.72" stroke-linecap="round" stroke-linejoin="round"/><path d="M224.39506,186.302l-10.55606,2.69196l-0.46328,-1.81669l10.01931,-2.55508c0.3749,0.53415 0.70917,1.09565 1.00004,1.67981z" fill="#f05822" fill-rule="nonzero" stroke="#dd3627" stroke-width="0.72" stroke-linecap="round" stroke-linejoin="round"/><path d="M216.6187,199.8941l7.59706,-1.93737c-0.81403,1.27361 -2.07145,2.20008 -3.52903,2.60027l-3.66091,0.93359z" fill="#f05822" fill-rule="nonzero" stroke="#dd3627" stroke-width="0.72" stroke-linecap="round" stroke-linejoin="round"/><path d="M225.58312,189.86869l-10.79002,2.75162l-0.46328,-1.81669l10.81755,-2.75864c0.07721,0.30278 0.15443,0.60556 0.23164,0.90835c0.07721,0.30278 0.14067,0.60907 0.20411,0.91537z" fill="#f05822" fill-rule="nonzero" stroke="#dd3627" stroke-width="0.72" stroke-linecap="round" stroke-linejoin="round"/><path d="M216.15542,198.07741l9.11097,-2.32344c-0.24677,0.77926 -0.60036,1.52058 -1.05063,2.20276l-7.59706,1.93737z" fill="#f05822" fill-rule="nonzero" stroke="#dd3627" stroke-width="0.72" stroke-linecap="round" stroke-linejoin="round"/><path d="M225.71144,193.70563l-10.01931,2.55508l-0.46328,-1.81669l10.55606,-2.69196c0.02441,0.65211 -0.00015,1.30512 -0.07347,1.95357z" fill="#f05822" fill-rule="nonzero" stroke="#dd3627" stroke-width="0.72" stroke-linecap="round" stroke-linejoin="round"/><path d="M225.78491,191.75207l-10.55606,2.69196l-0.46328,-1.81669l10.81755,-2.75864c0.11112,0.62232 0.17853,1.25164 0.20179,1.88337z" fill="#f05822" fill-rule="nonzero" stroke="#dd3627" stroke-width="0.72" stroke-linecap="round" stroke-linejoin="round"/><path d="M221.7181,189.88692c1.37624,5.39669 -0.72457,10.59183 -4.69227,11.60365c-3.96772,1.01183 -8.29984,-2.54281 -9.67608,-7.9395c-1.37624,-5.39669 0.72457,-10.59183 4.69227,-11.60365c3.96772,-1.01183 8.29984,2.54281 9.67608,7.9395z" fill="#ffbd39" fill-rule="nonzero" stroke="none" stroke-width="1" stroke-linecap="butt" stroke-linejoin="miter"/><path d="M218.66277,190.66608c0.78892,3.0936 -0.42009,6.07287 -2.70038,6.65438c-2.28029,0.58151 -4.76838,-1.45494 -5.5573,-4.54854c-0.78892,-3.0936 0.42009,-6.07287 2.70038,-6.65438c2.28029,-0.58151 4.76838,1.45494 5.5573,4.54854z" fill="#e69724" fill-rule="nonzero" stroke="#e69724" stroke-width="1.08" stroke-linecap="butt" stroke-linejoin="miter"/><path d="M216.33686,191.25922c0.34697,1.36058 -0.17896,2.66938 -1.17469,2.92331c-0.99573,0.25393 -2.0842,-0.64319 -2.43117,-2.00376c-0.34697,-1.36058 0.17896,-2.66938 1.17469,-2.92331c0.99573,-0.25393 2.0842,0.64319 2.43117,2.00376z" fill="none" fill-rule="evenodd" stroke="#dd3627" stroke-width="0.72" stroke-linecap="round" stroke-linejoin="round"/><path d="M207.3322,193.48225c-1.37581,-5.39502 0.72859,-10.59285 4.69227,-11.60365l3.66091,-0.93359c1.48526,-0.33039 3.04037,-0.09449 4.36083,0.66151c0.72196,0.38324 1.38737,0.86471 1.97719,1.43062c0.51116,0.47912 0.9709,1.01034 1.37163,1.58505c0.3749,0.53415 0.70917,1.09565 1.00004,1.67981c0.28306,0.56528 0.52528,1.15012 0.72477,1.75c0.07721,0.30278 0.15443,0.60556 0.23164,0.90835c0.07721,0.30278 0.15443,0.60556 0.23164,0.90835c0.11112,0.62232 0.17853,1.25164 0.20179,1.88337c0.02441,0.65211 -0.00015,1.30512 -0.07347,1.95357c-0.07656,0.69643 -0.22578,1.38294 -0.44507,2.04833c-0.24677,0.77926 -0.60036,1.52058 -1.05063,2.20276c-0.81403,1.27361 -2.07145,2.20008 -3.52903,2.60027l-3.66091,0.93359c-3.96369,1.0108 -8.31782,-2.6133 -9.69363,-8.00832z" fill="none" fill-rule="evenodd" stroke="#5e154d" stroke-width="1.44" stroke-linecap="round" stroke-linejoin="round"/></g><g data-paper-data="{&quot;index&quot;:null}" fill-rule="nonzero" stroke="#5e154d"><path d="M235.61796,213.98689l1.78037,0.60134c2.0462,0.72411 2.89169,3.23484 1.94395,6.07097l-2.43585,7.23186l-2.4256,7.21459c-1.03031,2.85718 -3.13483,4.37594 -5.22233,3.66237l-1.79413,-0.59783z" fill="#5e154d" stroke-width="1.44" stroke-linecap="round" stroke-linejoin="round"/><path d="M225.4929,232.10624l2.42209,-7.22835l2.43936,-7.2181c1.03031,-2.85718 3.1934,-4.37622 5.22233,-3.66237c2.02893,0.71385 2.89169,3.23484 1.93018,6.07448l-2.40832,7.22484l-2.41183,7.21108c-0.95125,2.82236 -3.12458,4.35867 -5.22233,3.66237c-2.11502,-0.70656 -2.92273,-3.24159 -1.97147,-6.06395z" fill="#ffdb48" stroke-width="1.44" stroke-linecap="butt" stroke-linejoin="miter"/><path d="M229.92058,234.52431c0.19384,0.76009 -0.26521,1.53342 -1.02531,1.72726c-0.76009,0.19384 -1.53342,-0.26521 -1.72726,-1.02531c-0.19384,-0.76009 0.26521,-1.53342 1.02531,-1.72726c0.76009,-0.19384 1.53342,0.26521 1.72726,1.02531z" fill="#000000" stroke-width="0.72" stroke-linecap="round" stroke-linejoin="round"/><path d="M235.81502,217.05876c0.19384,0.76009 -0.26521,1.53342 -1.02531,1.72726c-0.76009,0.19384 -1.53342,-0.26521 -1.72726,-1.02531c-0.19384,-0.76009 0.26521,-1.53342 1.02531,-1.72726c0.76009,-0.19384 1.53342,0.26521 1.72726,1.02531z" fill="#5e154d" stroke-width="0.72" stroke-linecap="round" stroke-linejoin="round"/></g><g data-paper-data="{&quot;index&quot;:null}"><path d="M224.95281,243.95557l0.84584,3.31684l-11.03775,2.8148l-0.84584,-3.31684z" fill="none" fill-rule="evenodd" stroke="#5e154d" stroke-width="1.44" stroke-linecap="round" stroke-linejoin="round"/><path d="M240.86998,250.9631c-0.46244,-1.62162 -1.0386,-3.20861 -1.72413,-4.74919l1.55306,-0.11756c0.77165,1.40693 1.35656,2.90848 1.74003,4.46664c0.39874,1.55362 0.60409,3.15051 0.61149,4.75443l-1.3096,0.61246c-0.18236,-1.67271 -0.47325,-3.33182 -0.87084,-4.96679z" fill="#5e154d" fill-rule="nonzero" stroke="#5e154d" stroke-width="1.44" stroke-linecap="round" stroke-linejoin="round"/><path d="M235.77783,258.12481l-2.80778,-11.01024c0,0 3.05266,-0.61723 6.21707,-0.91119c0.68554,1.54058 1.26169,3.12758 1.72413,4.74919c0.38415,1.63937 0.66123,3.30201 0.82956,4.97732c-2.9603,1.20931 -5.96299,2.19492 -5.96299,2.19492z" fill="#d2a6cc" fill-rule="nonzero" stroke="#5e154d" stroke-width="1.44" stroke-linecap="round" stroke-linejoin="round"/><path d="M204.92536,265.31841l-1.44297,0.08948c-0.7616,-1.41159 -1.34607,-2.9118 -1.74003,-4.46664c-0.40954,-1.55151 -0.61513,-3.14979 -0.61149,-4.75443l1.4197,-0.64054c0.14067,1.67993 0.39949,3.34779 0.77451,4.99135c0.42931,1.62659 0.96383,3.22352 1.60027,4.78077z" fill="#5e154d" fill-rule="nonzero" stroke="#5e154d" stroke-width="1.44" stroke-linecap="round" stroke-linejoin="round"/><path d="M204.92536,265.31841c-0.65452,-1.55132 -1.20749,-3.1436 -1.65533,-4.76673c-0.37502,-1.64356 -0.63384,-3.31144 -0.77451,-4.99135c2.91874,-1.25734 5.90795,-2.18088 5.90795,-2.18088l2.80778,11.01024c0,0 -3.12175,0.57623 -6.28589,0.92874z" fill="#d2a6cc" fill-rule="nonzero" stroke="#5e154d" stroke-width="1.44" stroke-linecap="round" stroke-linejoin="round"/><path d="M206.56123,252.07563c4.44168,-1.67098 8.96757,-3.10893 13.55923,-4.30797c4.60497,-1.14683 9.26679,-2.05189 13.96636,-2.71148c2.55327,4.34235 3.82259,9.3198 3.66064,14.35459c-4.4415,1.67152 -8.96743,3.10947 -13.55923,4.30797c-4.60511,1.14628 -9.26689,2.05133 -13.96636,2.71148c-2.53535,-4.34971 -3.80334,-9.32194 -3.66064,-14.35459z" fill="#9f509e" fill-rule="nonzero" stroke="#5e154d" stroke-width="1.08" stroke-linecap="round" stroke-linejoin="round"/><path d="M224.8036,261.99342l-3.3202,-13.0196c5.85297,-1.4193 11.31282,-2.19603 11.31282,-2.19603c2.1852,3.51063 3.23093,7.61129 2.99379,11.73966c0,0 -5.16503,1.93279 -10.98641,3.47596z" fill="#5e154d" fill-rule="nonzero" stroke="none" stroke-width="1" stroke-linecap="butt" stroke-linejoin="miter"/><path d="M208.38103,253.00405c0,0 3.707,-1.38508 8.37176,-2.75056l3.28861,12.89573c-4.74899,1.03517 -8.66658,1.59448 -8.66658,1.59448c-1.08392,-1.74837 -1.89121,-3.65371 -2.39323,-5.64858c-0.51336,-1.98719 -0.71594,-4.0419 -0.60056,-6.09108z" fill="#5e154d" fill-rule="nonzero" stroke="none" stroke-width="1" stroke-linecap="butt" stroke-linejoin="miter"/><path d="M223.00419,262.46697l-3.3202,-13.0196l1.74787,-0.44573l3.3202,13.0196l-1.00469,0.25621z" fill="#702061" fill-rule="nonzero" stroke="none" stroke-width="1" stroke-linecap="butt" stroke-linejoin="miter"/><path d="M221.8411,262.73425l-3.31669,-13.00584l1.21113,-0.30886l3.32371,13.03337z" fill="#7f1d71" fill-rule="nonzero" stroke="none" stroke-width="1" stroke-linecap="butt" stroke-linejoin="miter"/><path d="M220.04141,263.14923l-3.30265,-12.95079l1.78916,-0.45626l3.31318,12.99208c-0.60556,0.15443 -1.23191,0.28484 -1.79969,0.41497z" fill="#702061" fill-rule="nonzero" stroke="none" stroke-width="1" stroke-linecap="butt" stroke-linejoin="miter"/></g><g data-paper-data="{&quot;index&quot;:null}" stroke-width="3" stroke-linecap="butt" stroke-linejoin="miter"><path d="M231.45623,253.36375c0.5253,2.05987 -0.71871,4.15555 -2.77858,4.68085c-2.05987,0.5253 -4.15555,-0.71871 -4.68085,-2.77858c-0.5253,-2.05987 0.71871,-4.15555 2.77858,-4.68085c2.05987,-0.5253 4.15555,0.71871 4.68085,2.77858z" fill="#d2a6cc" fill-rule="nonzero" stroke="#ffffff"/><path d="M229.66707,253.82001c0.27331,1.07174 -0.37394,2.16211 -1.44568,2.43543c-1.07174,0.27331 -2.16211,-0.37394 -2.43543,-1.44568c-0.27331,-1.07174 0.37394,-2.16211 1.44568,-2.43543c1.07174,-0.27331 2.16211,0.37394 2.43543,1.44568z" fill="none" fill-rule="evenodd" stroke="#dd3627"/><path d="M220.18451,256.23821c0.5253,2.05987 -0.71871,4.15555 -2.77858,4.68085c-2.05987,0.5253 -4.15555,-0.71871 -4.68085,-2.77858c-0.5253,-2.05987 0.71871,-4.15555 2.77858,-4.68085c2.05987,-0.5253 4.15555,0.71871 4.68085,2.77858z" fill="#d2a6cc" fill-rule="nonzero" stroke="#ffffff"/><path d="M218.39535,256.69448c0.27331,1.07174 -0.37394,2.16211 -1.44568,2.43543c-1.07174,0.27331 -2.16211,-0.37394 -2.43543,-1.44568c-0.27331,-1.07174 0.37394,-2.16211 1.44568,-2.43543c1.07174,-0.27331 2.16211,0.37394 2.43543,1.44568z" fill="none" fill-rule="evenodd" stroke="#dd3627"/></g><g data-paper-data="{&quot;index&quot;:null}"><path d="M212.89859,217.49407l7.0756,27.74579l-1.85798,0.47381l-7.0756,-27.74579z" fill="#ffe578" fill-rule="nonzero" stroke="none" stroke-width="1" stroke-linecap="butt" stroke-linejoin="miter"/><path d="M227.14308,213.86151l7.0756,27.74579l-14.24449,3.63256l-7.0756,-27.74579z" fill="#ffdb48" fill-rule="nonzero" stroke="none" stroke-width="1" stroke-linecap="butt" stroke-linejoin="miter"/><path d="M209.88453,218.2627l7.0756,27.74579l-2.11947,0.5405l-7.0756,-27.74579z" fill="#ffe578" fill-rule="nonzero" stroke="none" stroke-width="1" stroke-linecap="butt" stroke-linejoin="miter"/><path d="M211.04061,217.96788l7.0756,27.74579l-1.37628,0.35097l-7.0756,-27.74579z" fill="#fff1b6" fill-rule="nonzero" stroke="none" stroke-width="1" stroke-linecap="butt" stroke-linejoin="miter"/><path d="M207.75131,218.80671l7.0756,27.74579l-3.44069,0.87743l-7.0756,-27.74579z" fill="#ffdb48" fill-rule="nonzero" stroke="none" stroke-width="1" stroke-linecap="butt" stroke-linejoin="miter"/><path d="M195.87831,224.20906l8.43229,-4.52493l7.0756,27.74579l-9.45713,0.5062z" fill="#e69724" fill-rule="nonzero" stroke="none" stroke-width="1" stroke-linecap="butt" stroke-linejoin="miter"/><path d="M195.87831,224.20906l2.24459,-9.07394l8.47791,-4.34602l-2.29021,8.89503z" fill="#e69724" fill-rule="nonzero" stroke="none" stroke-width="1" stroke-linecap="butt" stroke-linejoin="miter"/><path d="M194.12209,199.5041l8.39691,-4.72112l4.08181,16.00613l-8.48816,4.36329z" fill="#e69724" fill-rule="nonzero" stroke="none" stroke-width="1" stroke-linecap="butt" stroke-linejoin="miter"/><path d="M212.81218,209.39567l-4.08532,-16.01989l7.87231,-2.00756l4.09908,16.01638z" fill="#ffdb48" fill-rule="nonzero" stroke="none" stroke-width="1" stroke-linecap="butt" stroke-linejoin="miter"/><path d="M208.72686,193.37578l4.08181,16.00613l-1.85798,0.47381l-4.08181,-16.00613z" fill="#ffe578" fill-rule="nonzero" stroke="none" stroke-width="1" stroke-linecap="butt" stroke-linejoin="miter"/><path d="M206.86889,193.84959l4.08181,16.00613l-1.37628,0.35097l-4.08181,-16.00613z" fill="#fff1b6" fill-rule="nonzero" stroke="none" stroke-width="1" stroke-linecap="butt" stroke-linejoin="miter"/><path d="M205.65776,194.15845l4.08181,16.00613l-2.09195,0.53348l-4.08181,-16.00613z" fill="#ffe578" fill-rule="nonzero" stroke="none" stroke-width="1" stroke-linecap="butt" stroke-linejoin="miter"/><path d="M203.57958,194.68842l4.08181,16.00613l-1.37628,0.35097l-4.08181,-16.00613z" fill="#ffdb48" fill-rule="nonzero" stroke="none" stroke-width="1" stroke-linecap="butt" stroke-linejoin="miter"/><path d="M211.05437,217.96437l-0.1458,-8.27381l1.85798,-0.47381l0.1458,8.27381z" fill="#ffe578" fill-rule="nonzero" stroke="none" stroke-width="1" stroke-linecap="butt" stroke-linejoin="miter"/><path d="M212.91235,217.49056l-0.1458,-8.27381l0.97716,-0.24919l6.95021,-1.77241l6.44916,6.66635l-11.40935,2.90956z" fill="#ffdb48" fill-rule="nonzero" stroke="none" stroke-width="1" stroke-linecap="butt" stroke-linejoin="miter"/><path d="M209.84325,218.27323l-0.1458,-8.27381l1.21113,-0.30886l0.1458,8.27381z" fill="#fff1b6" fill-rule="nonzero" stroke="none" stroke-width="1" stroke-linecap="butt" stroke-linejoin="miter"/><path d="M207.75131,218.80671l-0.13204,-8.27732l2.07818,-0.52997l0.1458,8.27381z" fill="#ffe578" fill-rule="nonzero" stroke="none" stroke-width="1" stroke-linecap="butt" stroke-linejoin="miter"/><path d="M206.61458,210.7856l1.00469,-0.25621l0.13204,8.27732l-3.44069,0.87743z" fill="#ffdb48" fill-rule="nonzero" stroke="none" stroke-width="1" stroke-linecap="butt" stroke-linejoin="miter"/><path d="M198.11265,215.1524l-3.99055,-15.64829l8.39691,-4.72112l13.96923,-3.56237l4.13686,15.99209l-14.02428,3.57641z" fill="none" fill-rule="evenodd" stroke="#5e154d" stroke-width="1.44" stroke-linecap="round" stroke-linejoin="round"/><path d="M195.87831,224.20906l2.24459,-9.07394l8.49167,-4.34953l7.12913,-1.81804l6.95021,-1.77241l6.44916,6.66635l-11.40935,2.90956l-11.42311,2.91307z" fill="none" fill-rule="evenodd" stroke="#5e154d" stroke-width="1.44" stroke-linecap="round" stroke-linejoin="round"/><path d="M201.92908,247.93611l-6.05076,-23.72705l8.43229,-4.52493l22.83247,-5.82263l7.0756,27.74579l-22.83247,5.82263z" fill="none" fill-rule="evenodd" stroke="#5e154d" stroke-width="1.44" stroke-linecap="round" stroke-linejoin="round"/><path d="M208.93989,229.79013l0.33693,1.32123" fill="none" fill-rule="evenodd" stroke="#ffffff" stroke-width="2.16" stroke-linecap="round" stroke-linejoin="round"/><path d="M209.77871,233.07942l2.01458,7.89984" fill="none" fill-rule="evenodd" stroke="#ffffff" stroke-width="2.16" stroke-linecap="round" stroke-linejoin="round"/></g><g data-paper-data="{&quot;index&quot;:null}" fill-rule="nonzero" stroke="#dd3627" stroke-linecap="round" stroke-linejoin="round"><path d="M215.88145,220.33922l0.86706,-0.22111l1.85664,7.28051l-0.86706,0.22111c-1.9345,0.34636 -3.80486,-0.87131 -4.27092,-2.78051c-0.51383,-1.90264 0.54488,-3.87596 2.41428,-4.5z" fill="#dd3627" stroke-width="0.72"/><path d="M221.31195,222.83868c0.51367,2.01426 -0.6535,4.05097 -2.60696,4.54914c-1.95345,0.49816 -3.95345,-0.73088 -4.46712,-2.74514c-0.51367,-2.01426 0.6535,-4.05097 2.60696,-4.54914c1.95345,-0.49816 3.95345,0.73088 4.46712,2.74514z" fill="#ffffff" stroke-width="0.72"/><path d="M217.89634,220.99801l1.2986,5.09224l-1.37628,0.35097l-1.2986,-5.09224z" fill="#dd3627" stroke-width="0.54"/><path d="M218.32788,226.31136l-0.9162,0.02843l-1.1898,-4.66558l0.80739,-0.45509z" fill="#ffdb48" stroke-width="0.54"/></g><g data-paper-data="{&quot;index&quot;:null}" stroke-linecap="butt" stroke-linejoin="miter"><path d="M226.83707,229.33026l2.28132,8.94582l-14.56103,3.71329l-2.28132,-8.94582z" fill="#d2a6cc" fill-rule="nonzero" stroke="#d2a6cc" stroke-width="1.08"/><path d="M224.25961,237.21385l-0.99348,-1.02187" fill="none" fill-rule="evenodd" stroke="#ffdb48" stroke-width="0.72"/><path d="M221.49042,238.7702l-0.35097,-1.37628" fill="none" fill-rule="evenodd" stroke="#ffdb48" stroke-width="0.72"/><path d="M224.50676,234.102l1.37284,0.38279" fill="none" fill-rule="evenodd" stroke="#ffdb48" stroke-width="0.72"/><path d="M224.25961,237.21385l-0.99348,-1.02187" fill="none" fill-rule="evenodd" stroke="#ffdb48" stroke-width="0.72"/><path d="M224.5297,231.66295l1.39004,-0.35448" fill="none" fill-rule="evenodd" stroke="#ffdb48" stroke-width="0.72"/><path d="M225.8796,234.48479l-1.37284,-0.38279" fill="none" fill-rule="evenodd" stroke="#ffdb48" stroke-width="0.72"/><path d="M214.02869,234.34087l1.39004,-0.35448" fill="none" fill-rule="evenodd" stroke="#ffdb48" stroke-width="0.72"/><path d="M216.60691,236.11659l-1.02187,0.99348" fill="none" fill-rule="evenodd" stroke="#ffdb48" stroke-width="0.72"/><path d="M221.49042,238.77019l-0.35097,-1.37628" fill="none" fill-rule="evenodd" stroke="#ffdb48" stroke-width="0.72"/><path d="M218.69688,237.3572l-0.38279,1.37284" fill="none" fill-rule="evenodd" stroke="#ffdb48" stroke-width="0.72"/><path d="M219.05325,236.22562l1.0173,-3.42551l1.88455,0.77998" fill="none" fill-rule="evenodd" stroke="#f05822" stroke-width="1.08"/></g><g data-paper-data="{&quot;index&quot;:null}"><path d="M202.47094,191.89299l-10.59735,2.70249l-0.46328,-1.81669l10.01931,-2.55508c0.38864,0.52942 0.73674,1.08745 1.04132,1.66928z" fill="#f05822" fill-rule="nonzero" stroke="#dd3627" stroke-width="0.72" stroke-linecap="round" stroke-linejoin="round"/><path d="M203.15442,193.65352l-10.81755,2.75864l-0.46328,-1.81669l10.59735,-2.70249c0.26946,0.56982 0.49787,1.15818 0.68349,1.76053z" fill="#f05822" fill-rule="nonzero" stroke="#dd3627" stroke-width="0.72" stroke-linecap="round" stroke-linejoin="round"/><path d="M203.61771,195.47021l-10.81755,2.75864l-0.46328,-1.81669l10.84508,-2.76566c0.07721,0.30278 0.15443,0.60556 0.23164,0.90835c0.07721,0.30278 0.14067,0.60907 0.20411,0.91537z" fill="#f05822" fill-rule="nonzero" stroke="#dd3627" stroke-width="0.72" stroke-linecap="round" stroke-linejoin="round"/><path d="M201.42961,190.22371l-10.01931,2.55508l-0.46328,-1.81669l9.11097,-2.32344c0.51116,0.47912 0.9709,1.01034 1.37163,1.58505z" fill="#f05822" fill-rule="nonzero" stroke="#dd3627" stroke-width="0.72" stroke-linecap="round" stroke-linejoin="round"/><path d="M198.0808,187.20804l-7.59706,1.93737l-0.42468,-1.66529l3.71595,-0.94763c1.46941,-0.31477 3.00335,-0.0741 4.30578,0.67555z" fill="#f05822" fill-rule="nonzero" stroke="#dd3627" stroke-width="0.72" stroke-linecap="round" stroke-linejoin="round"/><path d="M200.05799,188.63866l-9.11097,2.32344l-0.46328,-1.81669l7.59706,-1.93737c0.72196,0.38324 1.38737,0.86471 1.97719,1.43062z" fill="#f05822" fill-rule="nonzero" stroke="#dd3627" stroke-width="0.72" stroke-linecap="round" stroke-linejoin="round"/><path d="M194.19001,203.67893l9.11097,-2.32344c-0.24677,0.77926 -0.60036,1.52058 -1.05063,2.20276l-7.59706,1.93737z" fill="#f05822" fill-rule="nonzero" stroke="#dd3627" stroke-width="0.72" stroke-linecap="round" stroke-linejoin="round"/><path d="M203.86079,197.34305l-10.59735,2.70249l-0.46328,-1.81669l10.81755,-2.75864c0.1245,0.61789 0.20571,1.24369 0.24308,1.87284z" fill="#f05822" fill-rule="nonzero" stroke="#dd3627" stroke-width="0.72" stroke-linecap="round" stroke-linejoin="round"/><path d="M194.19001,203.67893l-0.46328,-1.81669l10.01931,-2.55508c-0.07656,0.69643 -0.22578,1.38294 -0.44507,2.04833z" fill="#f05822" fill-rule="nonzero" stroke="#dd3627" stroke-width="0.72" stroke-linecap="round" stroke-linejoin="round"/><path d="M203.74603,199.30715l-10.01931,2.55508l-0.46328,-1.81669l10.59735,-2.70249c0.01125,0.65663 -0.02711,1.31321 -0.11476,1.9641z" fill="#f05822" fill-rule="nonzero" stroke="#dd3627" stroke-width="0.72" stroke-linecap="round" stroke-linejoin="round"/><path d="M194.65329,205.49562l7.65211,-1.95141c-0.81203,1.27549 -2.07023,2.20254 -3.52903,2.60027l-3.71595,0.94763z" fill="#f05822" fill-rule="nonzero" stroke="#dd3627" stroke-width="0.72" stroke-linecap="round" stroke-linejoin="round"/><path d="M199.75269,195.48844c1.37624,5.39669 -0.72457,10.59183 -4.69227,11.60365c-3.96772,1.01183 -8.29984,-2.54281 -9.67608,-7.9395c-1.37624,-5.39669 0.72457,-10.59183 4.69227,-11.60365c3.96772,-1.01183 8.29984,2.54281 9.67608,7.9395z" fill="#ffbd39" fill-rule="nonzero" stroke="none" stroke-width="1" stroke-linecap="butt" stroke-linejoin="miter"/><path d="M185.36679,199.08377c-1.37581,-5.39502 0.72859,-10.59285 4.69227,-11.60365l3.71595,-0.94763c1.48122,-0.32858 3.03183,-0.09138 4.34707,0.66502c0.72196,0.38324 1.38737,0.86471 1.97719,1.43062c0.51116,0.47912 0.9709,1.01034 1.37163,1.58505c0.3749,0.53415 0.70917,1.09565 1.00004,1.67981c0.28306,0.56528 0.52528,1.15012 0.72477,1.75c0.07721,0.30278 0.15443,0.60556 0.23164,0.90835c0.07721,0.30278 0.15443,0.60556 0.23164,0.90835c0.11112,0.62232 0.17853,1.25164 0.20179,1.88337c0.02881,0.6506 0.00888,1.30243 -0.0597,1.95006c-0.07656,0.69643 -0.22578,1.38294 -0.44507,2.04833c-0.24677,0.77926 -0.60036,1.52058 -1.05063,2.20276c-0.81203,1.27549 -2.07023,2.20254 -3.52903,2.60027l-3.71595,0.94763c-3.96369,1.0108 -8.31782,-2.6133 -9.69363,-8.00832z" fill="none" fill-rule="evenodd" stroke="#5e154d" stroke-width="1.44" stroke-linecap="round" stroke-linejoin="round"/><path d="M196.69735,196.2676c0.78892,3.0936 -0.42009,6.07287 -2.70038,6.65438c-2.28029,0.58151 -4.76838,-1.45494 -5.5573,-4.54854c-0.78892,-3.0936 0.42009,-6.07287 2.70038,-6.65438c2.28029,-0.58151 4.76838,1.45494 5.5573,4.54854z" fill="none" fill-rule="evenodd" stroke="#ffffff" stroke-width="1.08" stroke-linecap="butt" stroke-linejoin="miter"/><path d="M189.22616,194.21525l1.98184,-0.5054c1.52767,-0.38958 3.17723,0.96335 3.70018,3.01401c0.52295,2.05066 -0.29102,4.03183 -1.80493,4.4179l-1.98184,0.5054z" fill="#ffdb48" fill-rule="nonzero" stroke="none" stroke-width="1" stroke-linecap="butt" stroke-linejoin="miter"/><path d="M192.91258,197.23277c0.52336,2.05227 -0.27857,4.02865 -1.79117,4.41439c-1.51259,0.38573 -3.16306,-0.96525 -3.68642,-3.01752c-0.52336,-2.05227 0.27857,-4.02865 1.79117,-4.41439c1.51259,-0.38573 3.16306,0.96525 3.68642,3.01752z" fill="#e69724" fill-rule="nonzero" stroke="none" stroke-width="1" stroke-linecap="butt" stroke-linejoin="miter"/><path d="M191.4262,197.61182c0.19384,0.76009 -0.26521,1.53342 -1.02531,1.72726c-0.76009,0.19384 -1.53342,-0.26521 -1.72726,-1.02531c-0.19384,-0.76009 0.26521,-1.53342 1.02531,-1.72726c0.76009,-0.19384 1.53342,0.26521 1.72726,1.02531z" fill="#5e154d" fill-rule="nonzero" stroke="#5e154d" stroke-width="1.44" stroke-linecap="round" stroke-linejoin="round"/><path d="M187.42123,198.63315c-0.52295,-2.05066 0.30479,-4.03534 1.80493,-4.4179l1.98184,-0.5054c1.52767,-0.38958 3.17723,0.96335 3.70018,3.01401c0.52295,2.05066 -0.29102,4.03183 -1.80493,4.4179l-1.98184,0.5054c-1.50015,0.38256 -3.17723,-0.96335 -3.70018,-3.01401z" fill="none" fill-rule="evenodd" stroke="#5e154d" stroke-width="1.44" stroke-linecap="round" stroke-linejoin="round"/></g><g data-paper-data="{&quot;index&quot;:null}" fill="none" fill-rule="evenodd" stroke="#ffffff" stroke-width="1.8" stroke-linecap="round" stroke-linejoin="round"><path d="M204.51796,258.54778c-0.09125,-0.35783 -0.14039,-0.55051 -0.12855,-0.96395"/><path d="M206.09532,263.58358c-0.54791,-1.15339 -0.95607,-2.36807 -1.21587,-3.61823"/></g><g data-paper-data="{&quot;index&quot;:null}"><path d="M196.30926,221.35816l1.83045,-0.46679c2.13324,-0.54401 4.1771,1.1481 4.91766,4.05205l3.76593,14.76748c0.73704,2.89018 -0.24339,5.3682 -2.37662,5.91221l-1.85798,0.47381z" fill="#5e154d" fill-rule="nonzero" stroke="#5e154d" stroke-width="1.44" stroke-linecap="round" stroke-linejoin="round"/><path d="M202.43408,246.18031l-6.3175,-24.77303l0.16515,-0.04212c2.13324,-0.54401 4.19087,1.14459 4.93143,4.04854l3.76593,14.76748c0.73704,2.89018 -0.25715,5.37171 -2.39039,5.91572z" fill="#ffdb48" fill-rule="nonzero" stroke="none" stroke-width="1" stroke-linecap="butt" stroke-linejoin="miter"/><path d="M201.65551,246.17365l-6.23327,-24.44272c0.21292,-0.14967 0.44092,-0.27661 0.68029,-0.3787l6.3175,24.77303c-0.25177,0.04848 -0.50868,0.06474 -0.76452,0.04839z" fill="#ffe578" fill-rule="nonzero" stroke="none" stroke-width="1" stroke-linecap="butt" stroke-linejoin="miter"/><path d="M197.58847,242.06591l-3.7554,-14.72619c-0.41029,-1.42169 -0.27626,-2.9452 0.37601,-4.27337l5.75594,22.57097c-1.20665,-0.85553 -2.05335,-2.12796 -2.37655,-3.57142z" fill="#ffdb48" fill-rule="nonzero" stroke="none" stroke-width="1" stroke-linecap="butt" stroke-linejoin="miter"/><path d="M199.96502,245.63734l-5.76647,-22.61226c0.19107,-0.35644 0.44113,-0.67794 0.7396,-0.95082l6.13149,24.04359c-0.39081,-0.10207 -0.76347,-0.26419 -1.10461,-0.48051z" fill="#ffe578" fill-rule="nonzero" stroke="none" stroke-width="1" stroke-linecap="butt" stroke-linejoin="miter"/><path d="M201.11092,246.10732l-6.13149,-24.04359c0.13954,-0.12128 0.28752,-0.23246 0.44282,-0.33279l6.23327,24.44272c-0.1829,-0.00891 -0.3649,-0.0311 -0.5446,-0.06633z" fill="#fff1b6" fill-rule="nonzero" stroke="none" stroke-width="1" stroke-linecap="butt" stroke-linejoin="miter"/><path d="M203.10159,242.36029c0.19384,0.76009 -0.26521,1.53342 -1.02531,1.72726c-0.76009,0.19384 -1.53342,-0.26521 -1.72726,-1.02531c-0.19384,-0.76009 0.26521,-1.53342 1.02531,-1.72726c0.76009,-0.19384 1.53342,0.26521 1.72726,1.02531z" fill="#5e154d" fill-rule="nonzero" stroke="#5e154d" stroke-width="0.72" stroke-linecap="round" stroke-linejoin="round"/><path d="M198.54948,224.50995c0.19384,0.76009 -0.26521,1.53342 -1.02531,1.72726c-0.76009,0.19384 -1.53342,-0.26521 -1.72726,-1.02531c-0.19384,-0.76009 0.26521,-1.53342 1.02531,-1.72726c0.76009,-0.19384 1.53342,0.26521 1.72726,1.02531z" fill="#5e154d" fill-rule="nonzero" stroke="#5e154d" stroke-width="0.72" stroke-linecap="round" stroke-linejoin="round"/><path d="M197.67105,242.04485l-3.76593,-14.76748c-0.74055,-2.90395 0.24339,-5.3682 2.37662,-5.91221c2.13324,-0.54401 4.19087,1.14459 4.93143,4.04854l3.76593,14.76748c0.73704,2.89018 -0.25715,5.37171 -2.39039,5.91572c-2.147,0.54752 -4.18062,-1.16187 -4.91766,-4.05205z" fill="none" fill-rule="evenodd" stroke="#5e154d" stroke-width="1.44" stroke-linecap="round" stroke-linejoin="round"/></g></g></g></svg>