<svg version="1.1" xmlns="http://www.w3.org/2000/svg" xmlns:xlink="http://www.w3.org/1999/xlink" width="80.06507" height="126.84591" viewBox="0,0,80.06507,126.84591"><g transform="translate(-181.5596,-153.8365)"><g data-paper-data="{&quot;isPaintingLayer&quot;:true}" fill-rule="nonzero" stroke="none" stroke-width="1" stroke-linecap="butt" stroke-linejoin="miter" stroke-miterlimit="10" stroke-dasharray="" stroke-dashoffset="0" style="mix-blend-mode: normal"><g><path d="M258.98664,212.89091l-1.09911,2.53818l-2.71585,2.11603h-2.26303l-2.1986,-0.89181l-4.84963,-5.62182l-1.09917,-3.84904c0,0 1.35754,-1.85128 1.42235,-2.27878c0.06475,-0.42757 1.74585,-2.03798 1.74585,-2.03798c0,0 1.48749,-0.19329 1.61667,0c0.12918,0.19329 0.51718,0.96676 0.51718,0.96676l0.25875,1.86832l-0.194,1.99737l0.06482,1.58375l-0.25875,1.44424l0.77593,1.15347c0,0 1.16431,0.40517 1.61667,0.49562c0.45236,0.09045 2.32785,-0.49562 2.32785,-0.49562l1.81022,-2.5977h1.42274l1.09911,0.88096c0,-0.00077 0.36275,1.89072 0,2.72805z" fill="#ef463c"/><path d="M249.99849,216.5238l-2.7806,2.44928l-3.55653,1.99699c0,0 -3.49171,0.12912 -3.68571,0c-0.194,-0.12905 -4.0737,-1.03055 -4.0737,-1.03055l-3.75014,-2.3948l-2.26265,-2.43728l-1.73501,-2.17523l-0.39962,-2.63599v-1.88911l1.48749,-0.70859l1.93985,0.90188l0.64636,1.99737l1.03468,2.29312l2.39305,1.89453l4.26732,2.31862l3.23296,-0.57986l2.32778,-1.15889l2.13385,-2.4744z" fill="#afd7f2"/><path d="M230.9305,211.02878c-0.05513,-0.13493 -0.06327,-0.34984 -0.04035,-0.49555c0.05197,-0.33248 0.4993,-0.37457 0.77748,-0.30465c0.39226,0.09897 0.70143,0.39045 0.88923,0.73913c0.09464,0.1767 0.12298,0.3603 0.19129,0.54391c0.0601,0.16236 0.1827,0.30381 0.27076,0.45501c0.70227,1.20879 1.67529,1.93437 2.74528,2.78634c0.79071,0.62932 1.96858,1.31977 2.94858,1.58607c0.84733,0.23041 1.98879,0.20917 2.85587,0.06572c1.34901,-0.22266 2.40893,-0.77354 3.4165,-1.65993c0.2898,-0.25514 0.54507,-0.50795 0.80737,-0.78858c0.31078,-0.33319 0.87212,-0.68884 0.66069,-1.14152c-0.2308,-0.494 -0.6064,-0.9494 -0.88381,-1.421c-0.54042,-0.92041 -0.99433,-1.9008 -1.12351,-2.97001c-0.27315,-2.26181 0.50627,-4.14975 2.07562,-5.68328c0.86089,-0.8412 2.07833,-0.89452 3.21592,-0.59607c1.0013,0.2632 1.33152,0.90995 1.22906,1.95561c-0.17147,1.76471 -0.3492,3.52973 -0.47838,5.29786c-0.06746,0.92545 0.69136,1.90234 1.58452,2.17175c0.81783,0.24661 1.92701,-0.31466 2.53612,-1.21731c0.45552,-0.67451 0.93855,-1.33901 1.47974,-1.94553c0.63668,-0.71479 2.12765,-0.53196 2.8256,0.33086c0.73054,0.90266 1.16973,1.89879 0.96993,3.11766c-0.30846,1.88608 -1.01182,3.57615 -2.29176,5.01684c-1.45876,1.64295 -4.9699,2.07433 -6.76231,0.82648c-0.04771,-0.03325 -0.36237,-0.33086 -0.38567,-0.33202c-0.18619,-0.01046 -0.38522,0.45727 -0.50201,0.60149c-1.28768,1.59537 -3.63413,2.48447 -5.45726,3.28041c-1.41099,0.61576 -2.90119,0.58135 -4.41393,0.45649c-0.88458,-0.07302 -1.74702,-0.30304 -2.57653,-0.61034c-0.39142,-0.145 -0.79568,-0.28031 -1.17981,-0.42215c-0.4,-0.14771 -0.72861,-0.44261 -1.12939,-0.59491c-0.51602,-0.19561 -1.00447,-0.48671 -1.48246,-0.76502c-0.61996,-0.36069 -1.23914,-0.77509 -1.80092,-1.21538c-0.27586,-0.21608 -0.49587,-0.51066 -0.7787,-0.70007c-0.3379,-0.22615 -0.5614,-0.56941 -0.87754,-0.82144c-0.21343,-0.16972 -0.42486,-0.31776 -0.61924,-0.51763c-0.20252,-0.20756 -0.38406,-0.45307 -0.5676,-0.6769c-0.40891,-0.49904 -0.62499,-1.03171 -0.86476,-1.62397c-0.09587,-0.23577 -0.06753,-0.5725 -0.03957,-0.82493c0.02595,-0.23693 0.01743,-0.48509 0.27431,-0.51563c0.17263,-0.02014 0.4186,0.00303 0.56289,0.102c0.34726,0.23777 0.41556,0.74068 0.6115,1.08084c0.2778,0.48322 0.60175,0.93707 0.89814,1.40905c0.24364,0.38813 0.54584,0.74533 0.80969,1.10556c0.33054,-0.37534 0.65217,-0.64823 0.83648,-1.12106c0.12879,-0.33125 0.52609,-0.77967 0.50162,-1.14462c-0.02363,-0.34907 -0.50549,-0.90414 -0.68206,-1.20989c-0.22111,-0.38309 -0.44423,-0.76541 -0.67115,-1.14501c-0.09974,-0.16701 -0.2918,-0.28225 -0.36547,-0.46469zM246.84777,211.23756c0.40814,0.48083 0.81783,0.94707 1.23223,1.42719c0.74488,0.86321 1.41919,1.69853 2.26497,2.46975c0.04306,0.03906 0.08535,0.08005 0.12686,0.12137c0.41201,0.41208 0.76547,0.91925 1.29001,1.18755c1.54876,0.79246 3.87854,0.3676 4.9854,-0.97683c0.54358,-0.6603 1.02274,-1.433 1.29937,-2.23437c0.32783,-0.9494 0.55979,-1.97885 -0.0295,-2.97195c-0.34765,-0.586 -0.7523,-0.63474 -1.18839,-0.16966c-0.44965,0.47896 -0.84694,1.00853 -1.24927,1.52965c-1.04714,1.35566 -2.64167,2.03488 -4.11715,1.51377c-1.13558,-0.40123 -2.11093,-1.05689 -2.34334,-2.46936c-0.33364,-2.03333 -0.05313,-4.00366 0.3306,-5.98173c0.16372,-0.84236 -0.12105,-1.16554 -0.95637,-1.0086c-0.32822,0.06191 -0.66695,0.1898 -0.94591,0.37115c-1.63294,1.06225 -2.04883,3.56182 -1.60893,5.30832c0.18586,0.73681 0.41053,1.2942 0.90944,1.88375zM245.24814,216.16744c-0.01317,0.16927 0.20446,0.25856 0.27896,0.37612c0.09897,0.155 0.15055,0.35985 0.21653,0.53112c0.13228,0.34519 0.24364,0.69968 0.38096,1.04294c0.04693,0.11717 0.06675,0.19445 0.10129,0.23467c0.03996,0.04674 0.09968,0.04325 0.24636,-0.00542c0.23235,-0.07773 0.5889,-0.351 0.80078,-0.49174c0.49813,-0.33241 1.18484,-0.66605 1.5802,-1.11137c0.48574,-0.54733 -0.07218,-1.33752 -0.47722,-1.75573c-0.16295,-0.16817 -0.69407,-0.75617 -0.93345,-0.7206c-0.14823,0.02208 -0.4,0.40975 -0.49194,0.51724c-0.32789,0.3827 -0.77212,0.64094 -1.19769,0.93435c-0.10865,0.07457 -0.49426,0.31195 -0.50478,0.44842zM239.53801,220.30177c0.48186,0.30342 1.45179,0.19284 1.99337,0.16307c0.66347,-0.03667 1.32493,-0.13719 1.97052,-0.29297c0.34881,-0.08431 0.62118,-0.16624 0.935,-0.36882c0.14242,-0.09161 0.35578,-0.17779 0.46095,-0.31659c0.11601,-0.15346 0.07056,-0.0286 0.08147,-0.24545c0.0031,-0.06611 0.00155,-0.13764 -0.00581,-0.21259c-0.05475,-0.57754 -0.40465,-1.38471 -0.84191,-1.6762c-0.51447,-0.34364 -1.27839,0.12989 -1.82268,0.17825c-0.41285,0.03635 -0.82176,0.12331 -1.23571,0.14726c-0.41821,0.02434 -0.83455,0.02744 -1.25276,0.04254c-0.09703,0.0031 -0.36973,1.23274 -0.39962,1.34637c-0.10633,0.39897 -0.31427,0.96295 0.11717,1.23513zM232.88895,217.26913c0.19516,0.51259 1.11505,0.87322 1.55734,1.11602c0.59045,0.32434 1.1953,0.61382 1.81338,0.88174c0.45972,0.19949 0.91712,0.51414 1.43003,0.54623c0.08031,0.00465 0.16256,0.00271 0.24597,-0.00775c0.30846,-0.76076 0.59671,-1.62939 0.64597,-2.43921c-0.96993,-0.04177 -2.02675,-0.64442 -2.83141,-1.14656c-0.57573,-0.35914 -1.19149,-0.68116 -1.76606,-1.02984c-0.24481,0.34364 -0.45662,0.74145 -0.67548,1.10673c-0.12182,0.20375 -0.51866,0.70976 -0.41976,0.97264z" fill="#30419a"/></g><g><path d="M195.1653,204.41193l1.03436,0.83732l1.03468,1.93282l-0.32318,2.98002l-0.90511,2.21274l-2.7806,2.60313l-1.90764,1.54624l-2.45703,-0.38658l-2.48963,-0.83765l-1.35786,-1.61086l-0.12925,-1.31467l-0.38793,-1.84237l0.77593,-1.25095c0,0 0.71118,-0.61731 1.16392,-0.68187c0.45275,-0.06456 0.96993,0.68187 0.96993,0.68187l1.74585,1.18678l2.16607,1.03093h1.06689l0.84074,-0.90182v-2.06155v-2.51268v-1.61086c1.16392,-0.77309 1.93985,0 1.93985,0z" fill="#ef463c"/><path d="M195.23012,213.58672l0.71111,0.77657l3.68577,1.7751h3.13515l2.68363,-0.83765l2.1986,-1.28846l1.42274,-1.63746l1.16354,-1.34372l0.64675,-1.39976l0.84068,-1.41751c0,0 0.388,-1.15973 0.45281,-1.48175c0.06475,-0.32202 1.16386,0 1.16386,0l2.00467,0.51531l0.39574,1.65605l-1.36528,2.12765l-1.39201,4.65622l-1.84134,1.41674l-3.49139,2.19144l-3.87971,1.28846l-5.30935,-0.25746l-3.29119,-1.35302l-2.26303,-2.44928z" fill="#afd7f2"/><path d="M212.26593,215.54503c0.13267,-0.05681 0.33751,-0.13377 0.49077,-0.10052c0.30304,0.06572 0.22737,0.69697 0.15365,0.91731c-0.1734,0.51724 -0.57999,0.98807 -1.05372,1.2556c-0.23473,0.13299 -0.50362,0.23118 -0.72396,0.3858c-0.18431,0.12989 -0.34958,0.29032 -0.54003,0.41827c-0.58703,0.39426 -1.17096,0.79827 -1.79983,1.12525c-0.85043,0.44145 -1.74779,0.82609 -2.66575,1.09866c-1.5771,0.4685 -3.19803,0.85585 -4.85551,0.70621c-1.43003,-0.12905 -2.78286,-0.13215 -4.14388,-0.66256c-1.30595,-0.50872 -2.51681,-1.29575 -3.50804,-2.28421c-0.32163,-0.32086 -0.61608,-0.67147 -0.85973,-1.05495c-0.27857,-0.43796 -0.35694,-0.45068 -0.83532,-0.23034c-1.21396,0.55895 -2.78292,0.33861 -3.98022,-0.15849c-1.40796,-0.5849 -2.55593,-1.70208 -3.29778,-3.0183c-0.9676,-1.71713 -0.9625,-3.60475 0.09626,-5.37023c0.45507,-0.75805 2.00816,-0.94281 2.89274,-0.29955c0.56837,0.41324 1.09872,0.91111 1.54062,1.45618c0.58154,0.71744 1.33539,1.03481 2.19279,1.09517c1.18562,0.08309 1.64695,-0.71905 1.41996,-2.19415c-0.18657,-1.21344 -0.34952,-2.43734 -0.40388,-3.66156c-0.05003,-1.13074 0.96179,-1.70441 2.07994,-1.5884c1.71248,0.17741 2.4314,1.37768 3.00132,2.66885c0.32667,0.73952 0.42215,1.64753 0.37554,2.46588c-0.05933,1.04255 -0.29019,2.09441 -0.5982,3.09603c-0.17579,0.57212 -0.65262,1.05224 -1.0452,1.65179c0.93732,1.13455 2.06903,2.04031 3.61779,2.25251c1.55308,0.21259 2.87414,-0.13338 4.34918,-0.45462c0.39419,-0.0858 0.76741,-0.28141 1.12822,-0.45301c0.92183,-0.43842 1.81183,-0.9738 2.57847,-1.65179c0.45817,-0.40478 0.878,-0.82996 1.25121,-1.31163c0.50046,-0.64558 1.04288,-1.1953 1.32106,-1.97071c0.11214,-0.3135 0.13073,-0.67147 0.52686,-0.73719c0.20988,-0.0348 0.49503,0.01085 0.6095,0.20562c0.11834,0.20142 0.10084,0.62241 0.03105,0.83577c-0.04422,0.13531 -0.14668,0.20181 -0.21575,0.32124c-0.09542,0.16585 -0.14506,0.35255 -0.251,0.51608c-0.16295,0.25087 -0.28632,0.5288 -0.4512,0.78045c-0.32279,0.49252 -0.69678,0.94862 -1.07587,1.39898c-0.31969,0.3796 -0.45778,0.5215 -0.12453,0.95211c0.32241,0.41672 0.67974,0.76889 1.05605,1.1319c0.28128,0.27134 0.53777,0.59723 0.8869,0.78664c0.17618,0.09548 0.28793,0.08696 0.38141,0.03325c0.14003,-0.08038 0.23861,-0.26288 0.4481,-0.35333zM193.91913,213.51209c0.08496,-0.09509 0.16682,-0.18903 0.24481,-0.28141c0.37599,-0.44494 0.81318,-0.83771 1.16586,-1.30273c0.35075,-0.46237 0.50052,-0.95443 0.68051,-1.49175c0.44694,-1.33442 0.22737,-2.66304 -0.08728,-4.00133c-0.12143,-0.51763 -0.70808,-0.95947 -1.15695,-1.35069c-0.16023,-0.1399 -0.55281,-0.07308 -0.8124,-0.00271c-0.06675,0.01821 -0.07411,0.4144 -0.03725,0.62473c0.14978,0.85082 0.33364,1.69621 0.4931,2.54586c0.29684,1.58226 -0.57612,3.53671 -1.76561,3.97048c-1.06192,0.38729 -2.39538,0.0541 -3.37809,-0.40982c-0.4962,-0.23422 -0.95986,-0.55004 -1.33462,-0.95017c-0.40388,-0.43138 -0.54552,-1.1106 -1.05062,-1.44921c-0.4656,-0.31233 -0.94475,-0.27289 -1.24811,0.21646c-0.53112,0.85624 -0.25062,2.04728 0.06436,2.93986c0.2685,0.76037 0.95559,1.52577 1.59111,2.00241c0.47993,0.35985 1.04055,0.61847 1.58059,0.89142c1.90067,0.96018 3.83277,-0.59226 5.0506,-1.95141zM198.59574,216.76545c-0.05778,-0.08238 -0.46476,-0.19213 -0.57689,-0.25785c-0.42835,-0.25165 -0.81628,-0.57715 -1.22874,-0.8512c-0.3022,-0.20065 -0.63235,-0.35449 -0.93539,-0.55398c-0.21569,-0.14222 -0.47134,-0.54507 -0.77322,-0.48903c-0.39691,0.07385 -0.86592,0.77199 -1.18678,1.02286c-0.34377,0.26869 -0.35268,0.54778 -0.22195,0.81802c0.15791,0.32544 0.51873,0.637 0.74339,0.89988c0.20562,0.24048 0.49039,0.45113 0.74875,0.63474c0.43261,0.30736 0.85082,0.66218 1.34236,0.87444c0.35927,0.155 1.02622,0.49865 1.35482,0.17741c0.38018,-0.37186 0.47993,-1.20182 0.63009,-1.68736c0.04229,-0.13641 0.20833,-0.43758 0.10355,-0.58793zM205.19478,219.32022c-0.21459,-0.39658 -0.39652,-0.88174 -0.58858,-1.30737c-0.22073,-0.48935 -0.5164,-1.02629 -0.65139,-1.55089c-0.4807,0.07385 -0.95482,0.19174 -1.425,0.28064c-0.85514,0.16198 -1.74476,0.11214 -2.60603,0.04293c-0.01627,0.76463 -0.32783,1.45347 -0.45662,2.19531c-0.02214,0.12679 -0.10129,0.34674 -0.14242,0.53112c-0.02053,0.092 -0.03183,0.17476 -0.02208,0.23235c0.12531,0.74688 2.55284,0.39394 3.07505,0.38929c0.89698,-0.00813 2.18969,-0.02092 2.81707,-0.81337zM210.13363,217.11297c0.05236,-0.31737 -0.61918,-0.72364 -0.78406,-0.97419c-0.17967,-0.27328 -0.343,-0.5064 -0.57386,-0.74991c-0.23002,-0.24274 -0.3592,-0.6166 -0.61569,-0.81796c-0.65178,0.35023 -1.2341,0.80136 -1.89679,1.14036c-0.33867,0.17315 -0.78716,0.57522 -1.16819,0.52686c-0.0481,-0.00613 0.05087,0.19716 0.17502,0.42331c0.14429,0.26327 0.32241,0.55856 0.34139,0.59181c0.50633,0.89685 0.95056,2.0028 2.15516,1.4547c0.39845,-0.18134 0.74881,-0.44145 1.12048,-0.67651c0.27702,-0.17515 1.18723,-0.55436 1.24656,-0.91847z" fill="#30419a"/></g><g><path d="M215.9222,250.22042l-2.58666,11.14583l-0.35727,3.47912l0.93926,-0.64442l1.55186,-0.57986l1.81067,0.32241l2.36006,1.73953c0,0 0.54894,2.38356 0.73907,2.57685c0.19012,0.19329 -2.45277,3.47912 -2.45277,3.47912l-2.45703,1.28878l-0.84068,4.38094l-2.19867,1.80415l-2.9746,0.45068c0,0 -2.13385,-0.32195 -2.32778,-0.64397c-0.194,-0.32202 -1.01066,-0.77315 -1.01066,-0.77315l-3.32186,0.77315c0,0 -1.93985,0 -2.13385,0c-0.19393,0 -2.20519,-1.73959 -2.20519,-1.73959l-1.61009,-2.25522l-0.25881,-2.1261l0.64675,-1.41712h-2.00461l-1.81067,-1.80409l-1.4871,-3.02799l0.51718,-3.03806l1.68104,-1.66529l2.39267,-1.09517l2.1986,0.32202v-2.70597c0,0 0.96993,-1.6108 1.16392,-1.67497c0.194,-0.06417 1.81067,-0.90227 1.81067,-0.90227l2.52185,0.12912l2.3926,1.35302l0.58193,1.73953l8.79416,-11.53279z" fill="#ffffff"/><path d="M219.6296,264.9118c2.64716,2.92366 0.32518,6.39071 -2.10125,7.87749c-0.06746,0.04093 -0.13964,0.07611 -0.21337,0.10588c-1.12241,0.45075 -1.4607,1.25676 -1.43081,2.46245c0.07528,3.04651 -2.73947,5.02226 -5.22097,5.28243c-1.67368,0.17508 -3.21863,-0.17592 -4.48455,-1.3669c-0.51447,-0.48438 -1.06651,-0.16353 -1.47897,0.04519c-1.51771,0.76734 -3.63761,0.9494 -5.11148,-0.02008c-0.62389,-0.41053 -1.25314,-0.61892 -1.78743,-1.20027c-0.48064,-0.52267 -0.85391,-1.135 -1.22597,-1.73611c-0.34255,-0.55314 -0.53655,-1.19988 -0.65062,-1.83578c-0.03841,-0.21259 -0.05236,-1.94289 -0.12105,-1.9773c-3.14103,-1.57406 -4.70767,-4.13781 -4.3127,-7.65902c0.16759,-1.4933 1.24152,-2.62475 2.40855,-3.59972c1.20389,-1.00505 2.71811,-0.84152 4.09152,-1.15657c0.35811,-3.02373 1.33578,-4.35544 3.53755,-4.84718c2.51985,-0.56243 4.76157,0.28373 6.13267,2.4385c0.39342,-0.64249 0.6696,-1.20995 1.05024,-1.69627c1.56083,-1.99428 3.16504,-3.95498 4.72704,-5.94771c0.4962,-0.6328 0.88458,-1.34876 1.36993,-1.99118c0.39303,-0.52073 0.82054,-1.02906 1.30356,-1.4647c0.3255,-0.29381 1.02157,0.22686 0.94785,0.75843c-0.24442,1.76232 -0.537,3.51889 -0.83493,5.27352c-0.11872,0.6962 -0.29019,1.38504 -0.45585,2.07278c-0.38645,1.6046 -0.78451,3.20655 -1.17632,4.80961c-0.3255,1.33061 -0.64907,2.66194 -1.00756,4.13471c0.81821,-0.20872 1.43623,-0.41091 2.0702,-0.5195c1.45257,-0.24894 2.68944,0.16546 3.65001,1.30776c0.11834,0.14106 0.2002,0.31388 0.32473,0.44952zM218.55535,266.05339c-0.72396,-1.18445 -1.91971,-1.78285 -3.2613,-1.34023c-0.84656,0.2787 -1.59886,0.83268 -2.41397,1.22035c-0.33364,0.15849 -0.87761,0.39432 -1.04946,0.25552c-0.26495,-0.21414 -0.46127,-0.75378 -0.39187,-1.09665c0.3399,-1.68233 0.58161,-3.42463 1.22952,-4.99366c0.81279,-1.96839 1.16741,-4.02761 1.72533,-6.04629c0.35378,-1.27955 0.71615,-2.55639 1.07464,-3.83471c-0.0869,-0.04254 -0.17379,-0.08586 -0.26069,-0.12834c-0.17302,0.18593 -0.35966,0.3614 -0.51602,0.56011c-1.30279,1.65605 -2.61494,3.30475 -3.89288,4.97933c-0.76547,1.00317 -1.59421,1.98776 -2.16607,3.09719c-0.37205,0.72209 -0.73287,1.37348 -1.41996,1.78052c-0.25023,0.14842 -0.67276,0.22692 -0.90479,0.11246c-0.16643,-0.08192 -0.24171,-0.55662 -0.19083,-0.82454c0.14816,-0.7851 -0.06017,-1.44185 -0.50904,-2.07388c-0.62305,-0.87716 -1.58562,-0.95211 -2.51752,-1.11718c-1.34282,-0.23738 -2.55367,0.25514 -3.15465,1.28684c-0.53577,0.91964 -0.38251,2.79641 0.29529,3.6125c0.53074,0.63939 0.45933,1.13726 -0.23319,1.62009c-0.51718,0.36024 -0.9913,0.16888 -1.4126,-0.47896c-0.23783,-0.36572 -0.52183,-0.82028 -0.89078,-0.96179c-1.49563,-0.57328 -3.91541,0.61699 -4.44188,2.16361c-0.86405,2.53624 0.06669,5.76217 2.61881,7.17619c0.45778,0.25359 0.69833,0.14422 1.0995,-0.1175c0.62422,-0.40704 1.32881,-0.73371 2.04386,-0.94707c0.51247,-0.15307 1.04753,0.0603 1.04359,0.73758c-0.00349,0.64242 -0.12957,1.26754 -0.87638,1.50563c-0.42602,0.13609 -0.86909,0.23699 -1.26948,0.4268c-0.21995,0.104 -0.53848,0.37651 -0.52183,0.54429c0.21614,2.14851 1.43823,4.9005 3.8708,5.30328c1.32029,0.2184 2.35542,0.04254 3.58835,-0.44106c0.11834,-0.04642 0.23396,-0.21033 0.2685,-0.34139c0.31195,-1.18323 0.59943,-2.37349 0.90705,-3.55795c0.17153,-0.65908 0.66463,-1.02784 1.12125,-0.79594c0.54901,0.27876 0.60097,0.72641 0.44771,1.33326c-0.22963,0.91195 -0.31156,1.86174 -0.42712,2.79913c-0.01982,0.16043 0.06243,0.37153 0.16798,0.50336c0.77825,0.9718 2.71965,1.58956 3.90805,1.1678c2.8376,-1.00698 3.27447,-2.02559 3.50998,-4.61135c0.0989,-1.08781 -0.20801,-1.60621 -1.28652,-1.80641c-0.63939,-0.11872 -0.87025,-0.44106 -1.06696,-0.93164c0.77754,-1.02054 0.84423,-1.03558 2.07568,-0.41053c0.32434,0.1643 0.6246,0.39316 0.96528,0.50252c0.27702,0.0889 0.64946,0.15384 0.89039,0.04061c1.44204,-0.67728 2.30299,-1.89879 2.87292,-3.3245c0.388,-0.9718 -0.16101,-1.74921 -0.64868,-2.54741z" fill="#30419a"/></g><g><path d="M225.36231,241.26443l-3.761,0.90186h-5.55032l-2.13384,-1.03097l3.36255,-8.31117h6.33674z" fill="#ef463c"/><path d="M216.5561,205.95823h3.3746h3.35594l2.5928,0.96638l1.8751,2.35613c0,0 0.58193,2.02481 0.37321,2.34722c-0.20872,0.32241 0.69097,4.31683 0.69097,4.31683v7.02274l-1.38736,6.05629l-3.22947,2.77014c0,0 -3.43083,1.031 -3.81844,1.02984c-0.38754,-0.00116 -2.7806,-0.25668 -2.7806,-0.25668l-2.5866,-1.67503l-2.65103,-3.54361l-0.51711,-2.44812v-3.51702l0.77593,-4.46441l1.74585,-6.75682z" fill="#afd7f2"/><path d="M222.43428,214.36331l0.85237,1.51727v2.25523l-0.85237,2.44812l-1.63103,0.7998l-1.96896,-0.7998l-1.5546,-2.70596v-2.19067l1.4871,-1.32399l1.62211,-0.777z" fill="#f7ec1e"/><path d="M216.56269,217.5324c0.09509,-1.51771 0.45862,-2.95723 1.6811,-4.03884c0.81202,-0.71866 1.45024,-0.71595 2.52766,-0.40052c0.82712,0.24242 1.57168,0.43609 2.15593,1.13229c0.90208,1.07503 1.10537,2.34722 1.27413,3.77054c-0.11214,0.70704 -0.18238,1.52616 -0.38102,2.31319c-0.25681,1.01938 -2.04495,2.07433 -3.16814,1.8629c-2.1447,-0.40439 -4.232,-2.36813 -4.08965,-4.63956zM218.1181,217.84551c0.14978,0.3614 0.29987,0.86166 0.55249,1.30427c0.49697,0.87051 2.02907,1.42022 2.71307,1.0217c1.07393,-0.62589 1.63217,-2.71023 1.12009,-3.85059c-0.3818,-0.85011 -1.08671,-1.21886 -1.85334,-1.57955c-0.50323,-0.23615 -0.9044,-0.10936 -1.30479,0.20878c-0.88923,0.70627 -1.00756,1.73682 -1.22751,2.89538z" fill="#30419a"/><path d="M229.09768,212.71731c0.08496,0.35604 0.17695,0.69775 0.22737,1.0627c0.06475,0.4685 0.18386,0.94475 0.194,1.41712c0.01162,0.53771 0.07876,1.08277 0.10936,1.62203c0.02176,0.38929 0.07295,0.75185 0.1102,1.13804c0.08651,0.89762 0.17844,1.79718 0.14513,2.70016c-0.05591,1.5281 -0.27198,3.04768 -0.57425,4.54563c-0.20058,0.99465 -0.57225,1.95528 -0.77399,2.94993c-0.31659,1.56516 -1.37729,2.55167 -2.5478,3.47518c-0.24829,0.19561 -0.4869,0.42137 -0.76779,0.55475c-0.75772,0.36062 -0.74604,0.99614 -0.62422,1.65412c0.38328,2.06697 0.78484,4.13084 1.18794,6.19432c0.28515,1.45967 0.19051,1.9046 -0.84384,2.35535c-0.66928,0.29187 -1.44598,0.33319 -2.17071,0.50407c-2.08963,0.49213 -4.17842,-0.1175 -6.27463,-0.01853c-0.87528,0.04132 -1.8037,-0.32008 -2.6518,-0.64442c-0.70182,-0.26792 -0.76896,-0.98807 -0.5827,-1.62203c0.16449,-0.56088 0.50665,-1.06773 0.7441,-1.61002c0.4838,-1.10485 0.96257,-2.21274 1.41996,-3.32915c0.35694,-0.87167 0.67857,-1.75767 1.02971,-2.67233c-1.91235,-1.22074 -3.47544,-2.77395 -4.47293,-4.77449c-0.47799,-0.95902 -0.69717,-2.07078 -0.89581,-3.1389c-0.20213,-1.0882 -0.24364,-2.19996 -0.17579,-3.3032c0.05862,-0.95288 0.22505,-1.87755 0.44461,-2.80842c0.12337,-0.52221 0.21266,-1.05256 0.35733,-1.57019c0.18703,-0.66876 0.35539,-1.34837 0.60756,-1.99776c0.14978,-0.3858 0.27857,-0.78593 0.40427,-1.18019c0.12453,-0.38967 0.23241,-0.78167 0.36469,-1.16825c0.1428,-0.41666 0.19671,-0.85779 0.343,-1.27329c0.11485,-0.32628 0.21646,-0.65139 0.31078,-0.98193c0.09697,-0.33977 0.08457,-0.71666 0.2541,-1.03442c0.15907,-0.29807 0.58503,-0.58296 0.93926,-0.4461c0.33951,0.13105 0.27392,0.70356 0.24558,0.97955c-0.02557,0.2501 -0.10626,0.46469 -0.16682,0.70317c-0.09542,0.37651 -0.15907,0.7565 -0.30336,1.11951c-0.68832,1.73411 -1.28497,3.49145 -1.5853,5.33847c-0.2277,1.39976 -0.49387,2.79448 -0.67857,4.19966c-0.07172,0.54429 0.09703,1.05224 0.59865,1.44301c1.22874,0.95637 2.58466,1.68278 4.0943,1.99279c1.40757,0.28877 2.86749,0.31543 4.29288,0.53345c1.82926,0.27986 3.52476,-0.09548 5.07081,-1.0248c0.55869,-0.33629 1.37652,-0.54817 1.47,-1.39627c0.13506,-1.22345 0.41008,-2.46626 0.30807,-3.67389c-0.06946,-0.81989 -0.10517,-1.64179 -0.16101,-2.46284c-0.09464,-1.39433 -0.08651,-2.803 -0.28322,-4.18571c-0.03996,-0.28102 -0.10826,-0.5563 -0.17573,-0.83151c-0.06017,-0.24584 -0.0858,-0.53151 -0.18122,-0.76347c-0.15559,-0.37805 -0.21298,-0.71821 -0.1614,-1.13494c0.01433,-0.11524 0.06133,-0.25087 0.17379,-0.31427c0.10168,-0.05726 0.41014,-0.07385 0.51602,-0.02866c0.38722,0.16546 0.38606,0.72874 0.54591,1.04991c0.1082,0.2173 0.11989,0.43609 0.18735,0.65759c0.02602,0.08464 0.06133,0.16469 0.09974,0.24351c0.15055,0.31078 0.17766,0.63048 0.25643,0.95598zM218.30086,236.07863c0.15087,-0.6177 0.30142,-1.23507 0.45314,-1.85315c0.07721,-0.31543 0.21375,-0.54158 -0.19632,-0.61621c-0.20523,-0.03712 -0.55482,0.0224 -0.72473,0.14919c-0.23473,0.17515 -0.3104,0.54739 -0.43144,0.7971c-0.18657,0.38464 -0.41434,0.74804 -0.59904,1.13384c-0.37011,0.77348 -0.63932,1.59033 -1.01647,2.36148c-0.16798,0.34403 -0.31659,0.6993 -0.46166,1.0534c-0.15675,0.38193 -0.49387,0.96334 -0.46288,1.38743c0.00232,0.03131 0.0082,0.06223 0.01633,0.09277c0.14506,0.52144 1.15108,0.89794 1.59453,0.9053c0.37128,0.0062 0.47644,-0.13338 0.57186,-0.46695c0.10749,-0.37457 0.23319,-0.77005 0.3255,-1.14501c0.31156,-1.26599 0.62157,-2.53282 0.93119,-3.7992zM221.12291,239.66634c-0.06591,-0.90492 -0.13228,-1.81067 -0.19819,-2.71597c-0.04971,-0.68077 -0.09936,-1.36109 -0.149,-2.04186c-0.01556,-0.21337 0.05042,-0.85818 -0.0807,-1.02558c-0.06365,-0.07844 -0.63048,-0.09083 -0.63009,-0.08851c0.02408,0.2787 -0.14622,0.60227 -0.19632,0.87599c-0.05081,0.27792 -0.09503,0.55236 -0.16449,0.82648c-0.19161,0.75998 -0.43099,1.56903 -0.54855,2.36226c-0.14358,0.96799 -0.58703,1.86329 -0.69723,2.84438c-0.13809,1.23042 1.96316,1.3197 2.60216,0.65869c0.388,-0.40123 0.09735,-1.21305 0.06243,-1.69589zM224.23178,238.08685c-0.25494,-0.94707 -0.62273,-1.89027 -0.80233,-2.854c-0.07566,-0.40549 -0.0889,-1.32823 -0.38025,-1.6383c-0.18774,-0.19903 -0.78135,-0.17005 -1.01028,-0.02434c-0.05042,0.38425 0.02795,0.86205 0.05591,1.25134c0.04655,0.63977 0.16682,1.29072 0.16527,1.93243c-0.00271,1.05069 -0.0419,2.11377 -0.00155,3.16408c0.02247,0.61382 -0.06443,1.26212 0.6452,1.49137c0.49658,0.16004 1.02964,0.03706 1.39124,-0.26095c0.34222,-0.28141 0.53112,-0.71905 0.39071,-1.22003c-0.16837,-0.59994 -0.28825,-1.22887 -0.45391,-1.84159zM227.27617,226.21616c-2.43644,1.41215 -4.95945,1.12958 -7.46496,0.83732c-2.4997,-0.29148 -4.92956,-0.84462 -7.04753,-2.2784c-0.30956,3.08867 2.95168,6.36792 6.69562,6.99878c3.83238,0.64552 7.37729,-2.77789 7.81687,-5.55771z" fill="#30419a"/></g><g><path d="M240.75197,174.45308v33.50251l-1.29311,1.93283h-22.90274l-16.92914,-1.54626l0.38797,-7.9246l-0.38797,-27.18834l0.25878,-1.99738l39.5731,1.99738z" fill="#afd7f2"/><path d="M234.35042,183.76968l-0.32318,3.05349l-4.39688,1.5463l-3.94446,-0.59955l-2.00467,-1.59072c0,0 -0.32318,-1.67542 -0.388,-1.96916c-0.06475,-0.29381 0.388,-1.77555 0.388,-1.77555c0,0 1.22868,-1.60305 1.42268,-1.98963c0.194,-0.38658 2.45703,-0.25746 2.71578,-0.32202c0.25881,-0.06456 4.52652,0.32202 4.52652,0.32202z" fill="#ffffff"/><path d="M214.3699,185.72844c0,0 -4.33245,2.19066 -4.59088,2.04186c-0.25836,-0.14887 -2.84496,0.01969 -2.81662,0c0.02828,-0.01975 -2.48576,-1.2687 -2.48576,-1.2687c0,0 -0.71118,-1.99744 -0.71118,-2.25871c0,-0.26133 0.45281,-2.31558 0.45281,-2.31558c0,0 0.96993,-1.03093 1.16386,-1.22422c0.194,-0.19329 3.49177,-1.22429 3.49177,-1.22429l5.17281,0.32202z" fill="#ffffff"/><path d="M235.25597,193.78138l-0.51756,10.05071l-26.57605,-0.46658l-0.51717,-10.87255h27.09322z" fill="#f9f5b5"/><path d="M199.3038,181.15382l0.58196,14.75368l-16.48918,-6.0486l-0.64636,-1.48944l15.70587,-7.53803z" fill="#f7ec1e"/><path d="M219.09035,158.28187l2.36003,-3.47909l0.9839,0.38656l4.67429,9.92199l3.03355,7.64782l-17.51808,-1.20531z" fill="#f7ec1e"/><path d="M260.21535,186.05006l0.45276,1.22425l-14.80771,6.89363l-4.97884,1.99739l-0.12958,-16.68689z" fill="#f7ec1e"/><g fill="#30419a"><path d="M241.8259,196.42856c-0.19477,0.22034 -0.09548,1.0155 -0.10517,1.34566c-0.04267,1.42448 -0.02912,2.83741 -0.08961,4.25918c-0.04887,1.15159 -0.02486,2.30512 -0.05475,3.45704c-0.02789,1.07316 -0.17573,2.13346 -0.22344,3.20468c-0.04306,0.96599 -1.6097,2.27801 -2.58544,2.27491c-1.22913,-0.00387 -2.45819,0.01007 -3.68693,0.02782c-0.42983,0.00658 -0.87522,-0.05294 -1.30124,-0.00155c-0.3612,0.04371 -0.69407,-0.03092 -1.05489,-0.02937c-0.251,0.00116 -0.50278,-0.0062 -0.75346,0.00349c-0.83448,0.03209 -1.67833,0.02937 -2.51287,0.0286c-0.7379,-0.00077 -1.47626,0.01433 -2.21416,0.02782c-0.72899,0.01317 -1.45257,-0.01465 -2.17652,-0.01892c-0.95282,-0.00542 -1.9057,-0.01821 -2.85781,-0.0499c-1.09911,-0.03667 -2.19783,-0.08115 -3.29616,-0.12873c-0.75153,-0.03247 -1.49718,-0.06107 -2.24754,-0.13835c-1.21008,-0.12486 -2.42327,-0.21492 -3.638,-0.30852c-0.44035,-0.03396 -0.88071,-0.05681 -1.32067,-0.092c-0.57535,-0.04597 -1.14178,-0.17779 -1.71906,-0.20562c-0.54939,-0.02628 -1.10537,-0.01975 -1.65392,-0.06921c-0.42525,-0.03828 -0.85011,-0.07618 -1.27568,-0.1102c-1.62558,-0.12983 -3.25317,-0.23925 -4.87797,-0.37728c-0.67431,-0.0572 -1.35166,-0.12757 -2.01397,-0.26049c-0.81047,-0.16275 -0.92454,-0.85049 -0.93849,-1.50686c-0.02834,-1.31435 0.10394,-2.63831 -0.01162,-3.9422c-0.1878,-2.11494 0.08883,-4.20702 0.14777,-6.30878c0.02021,-0.71279 -0.24481,-0.99 -0.89504,-1.22112c-2.44773,-0.8698 -4.86087,-1.83585 -7.30395,-2.71914c-1.43862,-0.52028 -2.91946,-0.92506 -4.36312,-1.43339c-1.10808,-0.38961 -2.22423,-0.78936 -3.26672,-1.32164c-0.65953,-0.33667 -1.28497,-0.85043 -1.74276,-1.42836c-0.28051,-0.35449 -0.41279,-1.02558 0.2215,-1.38814c1.36257,-0.7778 2.71384,-1.57839 4.10398,-2.30474c1.89679,-0.99117 3.70553,-2.14625 5.79161,-2.78247c1.2485,-0.38083 2.40312,-1.06347 3.60546,-1.59886c0.33364,-0.14848 0.70182,-0.22344 1.02577,-0.38774c0.65921,-0.33403 1.35211,-0.64016 1.92087,-1.0944c0.22815,-0.18283 0.22615,-0.7248 0.22731,-1.10324c0.00626,-1.70357 -0.05584,-3.40798 -0.02828,-5.11077c0.01472,-0.91654 0.12376,-1.83772 0.2778,-2.74193c0.03292,-0.1929 0.44733,-0.46075 0.68322,-0.45811c2.10009,0.02557 4.19901,0.11834 6.2991,0.16314c1.23642,0.02634 2.47369,0.03325 3.71056,0.04835c0.52105,0.00658 1.00524,0.04519 1.51344,0.11246c0.37476,0.04952 1.0095,0.03131 1.31719,-0.2184c0.18858,-0.15268 0.22931,-0.47586 0.33712,-0.67651c0.24907,-0.46308 0.47954,-0.93274 0.72125,-1.40124c0.99439,-1.92785 2.0159,-3.84175 2.92101,-5.8275c0.75075,-1.64714 1.43165,-3.32605 2.17265,-4.97785c0.50285,-1.11983 1.03358,-2.22856 1.59459,-3.32057c0.40155,-0.78129 2.23004,-0.57405 2.70842,0.35372c0.98116,1.90305 1.88401,3.84594 2.83024,5.76636c0.18548,0.37612 0.47993,0.70472 0.62932,1.0913c0.7022,1.81881 1.36173,3.65382 2.05586,5.47572c0.52764,1.38659 1.0607,2.77246 1.64889,4.13355c0.12376,0.28722 0.47405,0.62157 0.76153,0.66644c0.88071,0.13686 1.78085,0.14919 2.67433,0.19949c1.71751,0.09697 3.43819,0.15617 5.15261,0.29335c0.72822,0.05836 1.93056,0.04526 2.4489,0.65643c0.32473,0.38232 0.18509,1.1423 0.23822,1.63049c0.09348,0.86166 0.17612,1.72487 0.19129,2.59196c0.01704,0.98381 0.21956,1.64366 1.22364,1.98847c1.38969,0.47741 2.70997,1.23623 4.13148,1.52074c2.16103,0.43299 4.11289,1.38898 6.17379,2.062c1.52707,0.49826 3.03283,1.06573 4.53891,1.627c1.07316,0.40013 2.15787,0.78516 3.18796,1.27916c0.94894,0.45462 1.10259,1.80486 0.31427,2.54748c-0.39187,0.36953 -0.88923,0.639 -1.36606,0.90614c-0.89543,0.50252 -1.78039,1.04023 -2.72282,1.43952c-2.47872,1.05069 -4.96913,2.07743 -7.48588,3.03341c-1.36373,0.5184 -2.74141,1.0004 -4.11986,1.47936c-0.70227,0.24358 -1.40408,0.48671 -2.10551,0.73293c-0.41014,0.14422 -1.18607,0.29148 -1.49253,0.6359zM199.08226,194.80117c-0.09735,-0.0348 -0.05778,-1.57839 -0.06436,-1.75425c-0.02176,-0.60149 -0.04384,-1.20298 -0.06598,-1.80415c-0.04306,-1.17516 -0.08612,-2.35032 -0.12918,-3.52586c-0.0419,-1.14462 -0.0838,-2.28963 -0.1257,-3.43425c-0.02098,-0.56282 -0.04151,-1.12603 -0.06211,-1.6893c-0.02324,-0.64126 -0.24481,-0.5636 -0.81938,-0.40975c-0.93771,0.25126 -1.77536,0.64481 -2.69603,0.96876c-0.98426,0.34674 -1.95929,0.7217 -2.92101,1.12603c-1.87897,0.7902 -3.70901,1.69472 -5.47043,2.71914c-0.94933,0.55243 -1.85954,1.17167 -3.01727,1.90577c0.6359,0.45191 1.0576,0.81447 1.53675,1.07154c0.38102,0.20413 0.83455,0.27257 1.2516,0.41324c1.65044,0.55746 3.30397,1.10563 4.94666,1.68388c2.48615,0.87483 4.96448,1.77245 7.63643,2.72921zM214.4533,170.69103c4.75925,0.2818 9.29855,0.55049 14.01435,0.82958c-0.47257,-1.43339 -0.83726,-2.71604 -1.31757,-3.95421c-0.95366,-2.45858 -1.95031,-4.9005 -2.97188,-7.33197c-0.49,-1.1667 -1.03823,-2.31365 -1.63914,-3.42696c-0.21033,-0.38961 -0.65804,-0.65133 -0.97967,-0.95476c-1.80209,2.32133 -2.99551,4.76287 -4.04381,7.28323c-1.039,2.49764 -2.28046,4.91794 -3.06227,7.55508zM240.10561,202.80384c-0.0295,-2.29234 -0.12763,-4.58391 -0.13848,-6.87625c-0.01052,-2.14121 0.06824,-4.28274 0.0869,-6.42434c0.02363,-2.77401 0.06863,-5.54874 0.02518,-8.32197c-0.02247,-1.45463 -0.0838,-2.9101 -0.23861,-4.35737c-0.0632,-0.59219 -0.10045,-1.16741 -0.13073,-1.7589c-0.03415,-0.66721 -0.16295,-0.81137 -0.78987,-0.86702c-0.72628,-0.06417 -1.4565,-0.06301 -2.18356,-0.11756c-0.59316,-0.04442 -1.20853,-0.24932 -1.79705,-0.22692c-1.80215,0.06882 -3.62948,-0.28606 -5.42737,-0.45611c-3.40443,-0.32279 -6.80692,-0.79362 -10.21838,-0.87948c-3.22715,-0.08154 -6.44539,-0.41634 -9.66744,-0.41634c-0.58974,0 -1.15773,-0.06449 -1.74553,-0.06449c-0.65566,0 -1.30628,-0.03209 -1.96348,-0.03209c-0.41595,0 -0.82254,-0.01394 -1.23726,-0.04022c-0.8749,-0.05526 -1.76335,-0.02666 -2.63702,-0.06843c-0.58935,-0.0286 -1.2066,0.0541 -1.7618,0.23583c-0.09697,0.0317 0.05313,0.80866 0.08535,1.24198c0.00775,0.10478 0.00426,0.21072 0.00194,0.31627c-0.05158,2.30583 -0.16256,4.61206 -0.14041,6.91718c0.02828,2.94445 0.26495,5.88935 0.22227,8.83147c-0.03764,2.60119 0.60911,5.14363 0.40775,7.76109c-0.18115,2.3538 -0.10239,4.73001 -0.07954,7.09582c0.01169,1.21189 0.15094,2.42223 0.23783,3.70869c2.28905,0.15307 4.35615,0.30969 6.42557,0.42447c1.76412,0.09819 3.53367,0.1113 5.29625,0.22847c2.33753,0.15539 4.66725,0.43719 7.00595,0.5512c2.92456,0.14267 5.85487,0.23428 8.78253,0.2308c3.28687,-0.00349 6.57302,-0.13415 9.8595,-0.21763c0.58277,-0.01472 1.36335,-0.75959 1.40137,-1.35256c0.0714,-1.11183 0.10168,-2.22623 0.16721,-3.33838c0.03338,-0.57715 0.15868,-1.15237 0.15094,-1.7272zM241.70524,194.4776c0.26107,0 0.40465,0.03596 0.52021,-0.00504c2.5979,-0.9239 5.20541,-1.82074 7.7831,-2.7968c2.35658,-0.89259 4.69489,-1.83733 7.01105,-2.83005c0.93965,-0.40278 1.79828,-0.99272 2.69409,-1.49795c-0.01356,-0.11711 -0.02718,-0.23467 -0.04035,-0.35178c-0.33286,-0.18632 -0.64985,-0.41285 -1.00214,-0.54933c-0.56295,-0.21801 -1.16315,-0.34287 -1.72378,-0.56669c-1.22016,-0.48709 -2.41629,-1.03365 -3.63839,-1.51415c-1.19491,-0.46966 -2.40616,-0.8984 -3.6174,-1.32442c-1.3789,-0.48509 -2.76704,-0.94591 -4.15014,-1.41945c-0.46598,-0.15927 -0.91834,-0.37612 -1.39556,-0.47664c-0.81202,-0.17089 -1.59647,-0.75688 -2.44031,-0.288c0,4.57771 0,9.09396 -0.00039,13.62029z"/><path d="M236.22939,200.76082c0.02014,0.74339 0.06359,2.72798 -0.42176,3.32063c-0.11834,0.14455 -0.26417,0.25049 -0.42828,0.32776c-0.70614,0.33209 -1.75328,0.12795 -2.44192,0.13686c-1.27832,0.01627 -2.58776,0.04216 -3.87157,0.09974c-0.9288,0.04177 -1.85102,0.2091 -2.78021,0.25397c-0.54662,0.02666 -1.09988,-0.10981 -1.65037,-0.11369c-0.62777,-0.00381 -1.2567,0.09897 -1.88285,0.08083c-0.6778,-0.0193 -1.35173,-0.16314 -2.02985,-0.18787c-3.47195,-0.12834 -6.94436,-0.24087 -10.41709,-0.34364c-0.49891,-0.01472 -1.00524,0.02163 -1.49989,0.09161c-1.32842,0.1867 -1.75864,-0.25785 -1.68575,-1.57684c0.0501,-0.90066 -0.1226,-1.81106 -0.12376,-2.71714c-0.00194,-1.30234 0.08225,-2.60468 0.08967,-3.9074c0.00387,-0.70511 -0.09626,-1.40944 -0.11253,-2.11532c-0.01595,-0.67877 -0.02369,-1.36302 0.04074,-2.03759c0.045,-0.46773 0.33712,-0.67567 0.8729,-0.64475c1.27994,0.07418 2.56413,0.06107 3.84601,0.10239c1.0995,0.03557 2.19822,0.12221 3.29771,0.14035c1.25553,0.02085 2.51216,-0.0224 3.76802,-0.01201c0.98891,0.00813 1.97827,0.05455 2.96756,0.08509c0.87335,0.02705 1.74747,0.09277 2.61959,0.07495c1.23339,-0.02511 2.46633,-0.16617 3.69855,-0.15578c1.15075,0.00968 2.29912,0.1929 3.45026,0.22499c0.97264,0.02705 1.95264,-0.00775 2.92063,-0.10439c0.4869,-0.04829 0.76779,0.07153 0.91718,0.50569c0.16062,0.46656 0.39026,0.93429 0.42751,1.41364c0.1816,2.35032 0.36624,4.70334 0.42951,7.05792zM211.91945,194.14203c-0.10355,-1.01434 -0.23544,-1.10247 -1.3024,-0.96831c-0.41356,0.05178 -0.83765,0.05487 -1.25469,0.0348c-0.90866,-0.04371 -1.11157,0.17005 -1.07974,1.05605c0.08225,2.30086 0.16798,4.60212 0.19245,6.90369c0.01704,1.58149 -0.02757,1.58188 1.57826,1.60389c0.10555,0.00155 0.21065,0.00891 0.35113,0.01504c1.32764,-0.04093 1.32648,-0.04093 1.335,-1.45502c0.00658,-1.10285 -0.16217,-2.24476 0.07024,-3.29855c0.29058,-1.31822 0.24364,-2.59002 0.10975,-3.89158zM216.38115,193.32678c-1.00524,-0.05061 -1.79201,-0.11214 -2.57847,-0.11059c-0.1521,0.00039 -0.41782,0.2339 -0.43571,0.38309c-0.09038,0.75385 -0.09426,1.51771 -0.16837,2.2742c-0.11524,1.17245 -0.13654,2.35303 -0.08535,3.52973c0.03919,0.8984 -0.05274,2.16749 0.30381,3.00823c0.29135,0.68774 1.37419,0.5818 2.00732,0.46469c0.64365,-0.1195 0.71389,-0.51802 0.72318,-1.12609c0.01827,-1.1485 0.1909,-2.29428 0.22234,-3.44394c0.04461,-1.64521 0.01085,-3.29313 0.01123,-4.97933zM220.80289,193.30477c-0.98587,0 -1.76761,0.01194 -2.54903,-0.00465c-0.46631,-0.01046 -0.69407,0.05333 -0.68006,0.64901c0.05972,2.56607 0.07599,5.13401 0.04422,7.70041c-0.01633,1.31899 0.14739,1.28149 1.41532,1.40286c1.17864,0.11246 1.26709,-0.03983 1.26748,-1.22312c0,-1.44688 0.0807,-2.89532 0.16721,-4.34072c0.0807,-1.3514 0.21421,-2.70016 0.33486,-4.18378zM224.98712,193.38824c-0.93887,0 -1.80796,0 -2.69603,0c-0.09154,0.43061 -0.23196,0.83539 -0.25604,1.24708c-0.10045,1.73643 -0.1796,3.47441 -0.23822,5.21284c-0.03183,0.93933 -0.03957,1.8822 0.01827,2.81882c0.01201,0.19755 0.35888,0.53267 0.55281,0.53345c0.87954,0.00426 1.7587,-0.08851 2.61959,-0.14532c0,-3.23942 0,-6.41001 -0.00039,-9.66686zM230.17239,193.52007c-0.01904,-0.01937 -0.04616,-0.03673 -0.0807,-0.05145c-0.29529,-0.12718 -1.09717,-0.08464 -1.35676,-0.09006c-0.44152,-0.00884 -2.28434,-0.29226 -2.33753,0.33131c-0.25139,2.96381 -0.18851,5.92531 0.19981,8.87479c0.02718,0.20407 0.30885,0.50523 0.5044,0.53267c0.51208,0.07114 1.04481,0.04642 1.56464,0.00465c1.38355,-0.11136 1.38123,-0.12292 1.35211,-1.53275c-0.00194,-0.10168 0.04538,-0.20375 0.04926,-0.30614c0.04577,-1.31047 0.10478,-2.62094 0.12647,-3.93219c0.01169,-0.71511 0.01169,-1.43068 0.00975,-2.14618c-0.00077,-0.35255 0.24481,-1.39821 -0.03144,-1.68465zM234.81989,200.20801c-0.01046,-1.15192 -0.06482,-2.30312 -0.12957,-3.45356c-0.03299,-0.59491 -0.06056,-1.19136 -0.10555,-1.78556c-0.02757,-0.3676 0.03183,-0.97102 -0.13732,-1.3004c-0.15559,-0.30226 -0.34222,-0.24197 -0.72473,-0.24158c-0.61963,0.00077 -1.768,-0.2339 -2.11487,0.25087c-0.36973,0.51724 -0.15475,1.52423 -0.15242,2.12649c0.00736,1.77045 0.01704,3.54097 0.05119,5.31142c0.0295,1.54198 0.05817,1.5412 1.53094,1.66838c0.31427,0.02092 0.63003,0.07076 0.94159,0.05029c0.149,-0.01007 0.39264,-0.13105 0.41666,-0.24048c0.17502,-0.78974 0.43144,-1.59072 0.42408,-2.38589z"/><path d="M204.64151,187.7142c-1.17128,-0.7696 -1.84056,-2.09518 -1.87742,-4.02335c-0.01975,-1.02093 0.1909,-1.73146 0.8532,-2.54205c0.63894,-0.78161 1.49834,-1.58336 2.45232,-1.96839c0.93778,-0.37805 1.96936,-0.46585 2.96724,-0.55436c1.78465,-0.15888 3.58022,0.05068 5.33111,0.39742c1.88207,0.37302 3.09564,1.43262 3.85724,3.0979c0.12918,0.28219 0.15791,0.66334 0.09387,0.96993c-0.21763,1.04255 -0.41046,2.1037 -0.77554,3.09868c-0.24171,0.65837 -0.77515,1.15934 -1.38194,1.49059c-0.50788,0.2776 -1.17716,0.40207 -1.72416,0.61853c-0.9738,0.38503 -1.92358,0.4716 -2.95516,0.56631c-2.3713,0.21685 -4.79108,0.19561 -6.84074,-1.15121zM209.35499,187.27004c-1.36722,-2.29344 -2.19828,-4.55989 -0.6483,-7.08226c-3.08828,0.85237 -4.44343,1.94792 -4.20172,3.44936c0.42867,2.66575 1.48865,3.52896 4.85002,3.6329z"/><path d="M237.84917,184.28305c0.03376,2.03914 -0.75734,3.69055 -2.60836,4.55918c-0.86592,0.40588 -1.97478,0.30614 -2.97608,0.41169c-0.54474,0.05759 -1.09452,0.06611 -1.74282,0.10245c-1.5352,-0.22809 -3.19648,0.05178 -4.81548,-0.54197c-2.77556,-1.0186 -4.34763,-4.21935 -2.41978,-7.21254c1.02932,-1.59808 2.52766,-2.11494 4.25298,-2.34728c2.37356,-0.32002 4.73827,-0.27754 7.03197,0.42873c2.07756,0.64016 3.23064,1.77549 3.27757,4.59973zM229.27541,187.75868c-1.65276,-2.25445 -2.29137,-4.51083 -0.74688,-6.95469c-0.57922,-0.21072 -1.70977,-0.01201 -2.63237,0.40549c-1.92901,0.8729 -2.40274,3.94297 -1.0576,5.1672c1.20815,1.09904 2.72159,1.31163 4.43685,1.382z"/><path d="M219.51172,188.29368c0.05817,-0.09355 0.13693,-0.18554 0.23854,-0.27444c0.58819,-0.51414 1.02506,-0.15888 1.37736,0.39697c0.17921,0.28296 0.20446,0.75462 0.10743,1.08355c-0.05468,0.18709 -0.53228,0.40362 -0.76043,0.351c-0.77632,-0.17857 -1.37109,-0.90259 -0.96289,-1.55709z"/></g></g></g></g></svg>